<svg width="643" height="151" viewBox="0 0 643 151" fill="none" xmlns="http://www.w3.org/2000/svg">
<mask id="mask0_43_82" style="mask-type:alpha" maskUnits="userSpaceOnUse" x="0" y="0" width="643" height="151">
<rect opacity="0.5" width="643" height="151" fill="url(#paint0_radial_43_82)"/>
</mask>
<g mask="url(#mask0_43_82)">
<g opacity="0.25">
<line x1="165" y1="-187.5" x2="165" y2="211.601" stroke="#7D95CC" stroke-linecap="round" stroke-dasharray="2 2"/>
<line x1="115" y1="-187.5" x2="115" y2="211.601" stroke="#7D95CC" stroke-linecap="round" stroke-dasharray="2 2"/>
<line x1="65" y1="-187.5" x2="65" y2="211.601" stroke="#7D95CC" stroke-linecap="round" stroke-dasharray="2 2"/>
<line x1="215" y1="-187.5" x2="215" y2="211.601" stroke="#1EF733" stroke-opacity="0.5" stroke-linecap="round" stroke-dasharray="2 2"/>
<line x1="265.5" y1="-187.449" x2="265.5" y2="211.652" stroke="#7D95CC" stroke-linecap="round" stroke-dasharray="2 2"/>
<line x1="315.5" y1="-187.449" x2="315.5" y2="211.652" stroke="#1EF733" stroke-opacity="0.5" stroke-linecap="round" stroke-dasharray="2 2"/>
<line x1="365.5" y1="-187.449" x2="365.5" y2="211.652" stroke="#7D95CC" stroke-linecap="round" stroke-dasharray="2 2"/>
<line x1="415.5" y1="-187.449" x2="415.5" y2="211.652" stroke="#1EF733" stroke-opacity="0.5" stroke-linecap="round" stroke-dasharray="2 2"/>
<line x1="465.5" y1="-187.449" x2="465.5" y2="211.652" stroke="#7D95CC" stroke-linecap="round" stroke-dasharray="2 2"/>
<line x1="515.5" y1="-187.449" x2="515.5" y2="211.652" stroke="#7D95CC" stroke-linecap="round" stroke-dasharray="2 2"/>
<line x1="565.5" y1="-187.449" x2="565.5" y2="211.652" stroke="#7D95CC" stroke-linecap="round" stroke-dasharray="2 2"/>
<line x1="0.5" y1="25.5" x2="642.5" y2="25.5001" stroke="#7D95CC" stroke-opacity="0.5" stroke-linecap="round" stroke-dasharray="2 2"/>
<line x1="0.5" y1="75.5" x2="642.5" y2="75.5001" stroke="#1EF733" stroke-linecap="round" stroke-dasharray="2 2"/>
<line x1="-8.5" y1="125.5" x2="659.5" y2="125.5" stroke="#7D95CC" stroke-opacity="0.5" stroke-linecap="round" stroke-dasharray="2 2"/>
</g>
</g>
<defs>
<radialGradient id="paint0_radial_43_82" cx="0" cy="0" r="1" gradientUnits="userSpaceOnUse" gradientTransform="translate(321.5 75.5) rotate(94.3708) scale(157.458 299.747)">
<stop stop-color="#D9D9D9"/>
<stop offset="1" stop-color="#D9D9D9" stop-opacity="0"/>
</radialGradient>
</defs>
</svg>
